<svg xmlns="http://www.w3.org/2000/svg" width="1200" height="630" viewBox="0 0 1200 630" role="img" aria-labelledby="title">
  <title id="title">The Slightly Rude Personality Test - Option C</title>
  <defs>
    <linearGradient id="bg" x1="0%" y1="0%" x2="100%" y2="100%">
      <stop offset="0%" stop-color="#0f3d35"/>
      <stop offset="100%" stop-color="#14584b"/>
    </linearGradient>
    <linearGradient id="blobA" x1="0%" y1="0%" x2="100%" y2="100%">
      <stop offset="0%" stop-color="#f59e0b"/>
      <stop offset="100%" stop-color="#ef4444"/>
    </linearGradient>
    <linearGradient id="blobB" x1="100%" y1="0%" x2="0%" y2="100%">
      <stop offset="0%" stop-color="#22d3ee"/>
      <stop offset="100%" stop-color="#8b5cf6"/>
    </linearGradient>
  </defs>

  <rect width="1200" height="630" fill="url(#bg)"/>
  <circle cx="130" cy="130" r="190" fill="url(#blobA)" opacity="0.26"/>
  <circle cx="1060" cy="530" r="250" fill="url(#blobB)" opacity="0.24"/>

  <rect x="86" y="66" width="1028" height="498" rx="44" fill="#0f172a" opacity="0.2"/>
  <rect x="72" y="52" width="1028" height="498" rx="44" fill="#fffef8"/>

  <rect x="444" y="102" width="312" height="52" rx="26" fill="#111827"/>
  <text x="600" y="136" text-anchor="middle" fill="#fef3c7" font-family="Nunito, ui-sans-serif, system-ui, sans-serif" font-size="28" font-weight="800" letter-spacing="1.5">
    MILDLY RUDE QUIZ
  </text>

  <text x="600" y="232" text-anchor="middle" fill="#0f172a" font-family="Nunito, ui-sans-serif, system-ui, sans-serif" font-size="72" font-weight="900">
    The Slightly Rude
  </text>
  <text x="600" y="308" text-anchor="middle" fill="#0f172a" font-family="Nunito, ui-sans-serif, system-ui, sans-serif" font-size="72" font-weight="900">
    Personality Test
  </text>

  <text x="600" y="378" text-anchor="middle" fill="#334155" font-family="Nunito, ui-sans-serif, system-ui, sans-serif" font-size="32" font-weight="700">
    Three axes | 18 archetypes | mildly rude on purpose
  </text>

  <text x="600" y="468" text-anchor="middle" fill="#475569" font-family="Nunito, ui-sans-serif, system-ui, sans-serif" font-size="30" font-weight="700">
    Take the quiz | share your stress animal
  </text>

  <path d="M160 186l18-16m-9 8l13 13m914 26l18-16m-9 8l13 13m-960 288l18-16m-9 8l13 13" stroke="#111827" stroke-width="5" stroke-linecap="round" opacity="0.32"/>
</svg>
